<?xml version="1.0" encoding="UTF-8" standalone="no"?>
<!-- Created with Inkscape (http://www.inkscape.org/) -->

<svg
   width="125.57988mm"
   height="113.41081mm"
   viewBox="0 0 125.57988 113.41081"
   version="1.1"
   id="svg5"
   xml:space="preserve"
   xmlns:inkscape="http://www.inkscape.org/namespaces/inkscape"
   xmlns:sodipodi="http://sodipodi.sourceforge.net/DTD/sodipodi-0.dtd"
   xmlns="http://www.w3.org/2000/svg"
   xmlns:svg="http://www.w3.org/2000/svg"><sodipodi:namedview
     id="namedview7"
     pagecolor="#ffffff"
     bordercolor="#666666"
     borderopacity="1.0"
     inkscape:showpageshadow="2"
     inkscape:pageopacity="0.0"
     inkscape:pagecheckerboard="0"
     inkscape:deskcolor="#d1d1d1"
     inkscape:document-units="mm"
     showgrid="false" /><defs
     id="defs2" /><g
     inkscape:label="Capa 1"
     inkscape:groupmode="layer"
     id="layer1"
     transform="translate(-45.163591,-175.00892)"><g
       id="g1044"><ellipse
         style="fill:#000000;stroke-width:0.281202"
         id="path474"
         cx="107.95353"
         cy="231.71432"
         rx="62.78994"
         ry="56.705402" /><ellipse
         style="fill:#ffffff;stroke-width:0.265294"
         id="ellipse482"
         cx="107.77612"
         cy="231.53691"
         rx="59.418972"
         ry="53.334435" /></g><g
       id="g358"
       transform="matrix(0.95183933,0,0,0.95477593,6.360537,142.40854)"><path
         style="fill:#606060;fill-opacity:1;stroke-width:0.264583"
         d="m 176.17966,93.322581 c 0,-37.326092 0.0307,-52.595857 0.0682,-33.932811 0.0375,18.663046 0.0375,49.20258 0,67.86562 -0.0375,18.66305 -0.0682,3.39328 -0.0682,-33.932809 z M 171.4853,26.207723 c 0.1819,-0.0734 0.47956,-0.0734 0.66146,0 0.1819,0.0734 0.0331,0.133452 -0.33073,0.133452 -0.3638,0 -0.51263,-0.06005 -0.33073,-0.133452 z"
         id="path364"
         sodipodi:nodetypes="ssssssss" /><path
         style="fill:#000000;fill-opacity:1;stroke-width:0.260824"
         d="m 106.91409,142.82209 c -0.62528,-0.97231 -1.80426,-3.20641 -9.818853,-18.60619 l -3.416434,-6.56457 -19.297187,0.1034 c -13.885308,0.0745 -19.37769,0.022 -19.584237,-0.18693 -0.209841,-0.21226 -0.06381,-0.5911 0.542914,-1.40846 1.195888,-1.61106 10.962784,-15.61998 15.959199,-22.890708 1.288901,-1.875593 3.154876,-4.59061 4.146607,-6.033373 1.581609,-2.300909 9.382812,-13.695796 12.66115,-18.493602 0.640797,-0.937797 3.658623,-5.364456 6.706286,-9.837023 7.578165,-11.12127 12.276735,-17.782898 12.625565,-17.90051 10.70625,15.730763 19.8,28.998459 30.56052,44.788371 8.42911,12.377284 20.14551,29.260085 21.16406,30.496465 0.81866,0.99373 0.94674,1.27921 0.62917,1.40248 -0.21929,0.0851 -9.03988,0.11387 -19.6013,0.0639 l -19.20258,-0.0909 -1.07367,2.22973 c -0.92948,1.93029 -8.03153,15.73649 -11.25457,21.87863 l -1.08802,2.07342 z m 2.15438,-23.84604 1.55151,-1.44277 h -3.28836 c -3.15357,0 -3.26776,0.0188 -2.78563,0.46044 0.94895,0.86908 2.80051,2.42509 2.88572,2.42509 0.0469,0 0.78342,-0.64924 1.63676,-1.44276 z M 92.397688,108.09776 c 0.827407,-0.5103 0.831499,-0.52307 0.482729,-1.50736 -0.193462,-0.54599 -0.766567,-1.90754 -1.273566,-3.02569 l -0.921816,-2.03298 h -3.515807 c -1.933693,0 -3.515805,-0.0655 -3.515805,-0.14572 0,-0.0801 1.838051,-3.041341 4.084559,-6.580437 5.823597,-9.17436 8.174346,-12.896529 13.395868,-21.210985 5.40944,-8.613682 5.68946,-9.046061 5.85992,-9.0478 0.0713,-7.87e-4 0.47552,0.559176 0.89822,1.244232 1.55633,2.522296 10.66992,16.865849 13.62522,21.444239 1.67631,2.596973 4.39857,6.876078 6.04947,9.509121 l 3.00164,4.78735 h -4.29633 -4.29633 l 0.4681,-0.72138 c 0.25746,-0.39677 0.92474,-1.457497 1.48286,-2.357193 l 1.01476,-1.635811 -1.97875,-3.262449 c -3.0591,-5.043638 -2.54892,-4.949599 -4.75901,-0.877198 -1.03767,1.912053 -2.58992,4.686413 -3.44945,6.165246 l -1.56278,2.688785 h -6.17556 -6.17557 l -2.803154,-4.918511 c -1.541733,-2.705181 -3.09246,-5.43165 -3.446059,-6.058819 l -0.64291,-1.140307 -2.17623,3.369705 c -1.196927,1.853336 -2.239919,3.62638 -2.317761,3.940094 -0.09595,0.386685 0.227353,1.189415 1.003806,2.492377 0.629938,1.057081 2.001896,3.382161 3.048798,5.166811 l 1.90346,3.24485 -0.626818,0.48739 c -0.612152,0.476 -0.03377,0.48754 24.723398,0.49324 13.94261,0.003 25.3502,-0.0617 25.3502,-0.14407 0,-0.0825 -0.18986,-0.34195 -0.42192,-0.57668 C 143.9054,107.35206 129.716,85.840222 123.19918,75.693153 116.07357,64.598161 107.90936,51.302376 107.42021,49.99636 c -0.15827,-0.422548 -0.43497,-0.09578 -1.555,1.836243 -3.91068,6.745927 -34.606698,54.072377 -36.244231,55.880567 -0.269741,0.29785 -0.490437,0.62247 -0.490437,0.72139 0,0.0989 5.047349,0.17939 11.216331,0.17884 10.686439,-9.9e-4 11.255757,-0.0253 12.050815,-0.51564 z M 109.86531,93.858853 c 0.75859,-1.046004 2.57925,-3.579205 4.04592,-5.629334 l 2.66666,-3.72751 -4.90451,-7.376195 -4.90451,-7.376195 -0.41915,0.819862 c -0.23052,0.450923 -2.28221,3.716192 -4.5593,7.256151 l -4.140149,6.43629 3.409519,4.634516 c 5.25237,7.13948 4.99942,6.86424 6.30848,6.86424 1.08788,0 1.15469,-0.05088 2.49704,-1.901825 z"
         id="path360"
         sodipodi:nodetypes="ssccssssssccssscsscsscscssssscsssscssscccsscssscccsscsssscscssssssssssscccsscsss" /></g></g></svg>
